<svg width="96" height="66" viewBox="0 0 96 66" fill="none"
    xmlns="http://www.w3.org/2000/svg">
    <path fill-rule="evenodd" clip-rule="evenodd" d="M48.0689 23.3683C48.0679 23.271 48.0674 23.1735 48.0674 23.0759C48.0674 12.822 54.3174 3.69108 63.0088 0.566078C66.7686 -0.752322 69.8448 1.00558 69.8448 4.56998C69.8448 5.50504 69.6237 6.50199 69.3697 7.64738C69.0269 9.19352 68.6241 11.0102 68.6241 13.3102C68.6241 22.197 73.5557 27.4216 83.2725 27.4216C85.4446 27.4216 86.9222 27.1498 88.2342 26.9085C89.2816 26.7159 90.2234 26.5427 91.3287 26.5427C94.7467 26.5427 96.6027 29.7653 95.0397 33.2809C91.6844 41.1747 83.8436 47.3755 72.139 47.7636C72.1199 45.4291 71.6998 43.221 70.937 41.1911C70.9473 41.1911 70.9575 41.1911 70.9678 41.1911C78.6827 41.1911 85.5674 38.0661 88.5948 32.9392L88.3506 32.5974C86.7393 33.0856 84.3956 33.5739 81.71 33.5739C70.5772 33.5739 62.3741 25.9079 62.3741 14.7263C62.3741 11.9431 62.8624 9.50168 63.4483 7.64618L62.96 7.30438C57.8819 10.4782 54.4639 16.3376 54.4639 22.9294C54.4639 25.0591 54.7307 27.0621 55.2341 28.905C54.1005 28.7197 52.9301 28.614 51.7294 28.5938C50.6936 26.6685 49.463 24.9197 48.0689 23.3683Z" />
    <path fill-rule="evenodd" clip-rule="evenodd" d="M57.8613 65.1973H16.6016C6.7383 65.1973 0 58.9961 0 50.0606C0 43.127 4.15039 37.4629 10.5469 35.3633C11.8652 22.7657 22.6074 13 35.4492 13C44.7266 13 52.8809 18.0293 57.373 26.379C68.9941 26.5743 77.7832 34.7774 77.7832 45.7149C77.7832 56.7012 69.0918 65.1973 57.8613 65.1973ZM7 50.2246C7 54.7168 10.2227 58.1348 16.375 58.1348H57.9278C65.2032 58.1348 70.7208 52.7148 70.7208 45.8789C70.7208 39.0918 65.4961 33.2812 55.584 33.2812C53.4356 33.2812 52.3614 32.6953 51.4825 30.8887C47.918 23.7598 42.3516 20 35.418 20C26.0918 20 18.4747 27.4219 17.5469 37.9687C17.3516 40.166 16.6192 41.0937 14.5684 41.6309C9.002 43.0469 7 46.5137 7 50.2246Z" />
</svg>
