<svg width="101" height="98" viewBox="0 0 101 98" fill="none"
    xmlns="http://www.w3.org/2000/svg">
    <path d="M57.3917 96.2559L62.128 88.0528C62.9093 86.7832 62.4698 85.2696 61.2003 84.4883C59.882 83.7559 58.4171 84.1954 57.6359 85.4649L52.8995 93.7657C52.1671 94.9375 52.5577 96.4512 53.8761 97.1836C55.1456 97.916 56.7081 97.4766 57.3917 96.2559Z" />
    <path d="M45.4775 85.4649L50.2138 77.2618C50.9462 75.9922 50.5556 74.4786 49.2372 73.6974C47.9189 72.9649 46.5028 73.4044 45.7216 74.6739L40.9364 82.9747C40.2528 84.1465 40.5946 85.6602 41.913 86.3926C43.2314 87.1251 44.745 86.6856 45.4775 85.4649Z" />
    <path d="M26.9718 96.3047L31.7081 88.1016C32.4405 86.8321 32.0499 85.3184 30.7804 84.5372C29.462 83.8047 27.9972 84.2442 27.2159 85.5137L22.4796 93.8145C21.7472 94.9863 22.1378 96.5 23.4562 97.2324C24.7257 97.9648 26.2882 97.5254 26.9718 96.3047Z" />
    <path d="M15.0575 85.5137L19.7939 77.3106C20.5263 76.0411 20.1357 74.5274 18.8173 73.7461C17.4989 73.0137 16.0341 73.4531 15.3017 74.7227L10.5165 83.0235C9.83288 84.1953 10.1747 85.709 11.4931 86.4414C12.8114 87.1739 14.3251 86.7344 15.0575 85.5137Z" />
    <path fill-rule="evenodd" clip-rule="evenodd" d="M52.5594 23.6767C52.5582 23.5697 52.5576 23.4625 52.5576 23.3551C52.5576 13.15 58.8076 3.97028 67.499 0.89408C71.2588 -0.47312 74.335 1.33358 74.335 4.84918C74.335 5.80771 74.1127 6.8107 73.8578 7.96062C73.5155 9.50527 73.1143 11.315 73.1143 13.6383C73.1143 22.4762 78.0459 27.7008 87.7627 27.7008C89.9349 27.7008 91.4125 27.429 92.7244 27.1877C93.7718 26.9951 94.7136 26.8219 95.8189 26.8219C99.2369 26.8219 101.093 30.0445 99.5299 33.5601C96.1746 41.4539 88.3338 47.6547 76.6292 48.0428C76.6103 45.7268 76.1967 43.5353 75.4453 41.5191C75.4496 41.5191 75.4538 41.5191 75.458 41.5191C83.1729 41.5191 90.0576 38.3453 93.085 33.2184L92.8408 32.8766C91.2295 33.4137 88.8858 33.8531 86.2002 33.8531C75.0674 33.8531 66.8643 26.1871 66.8643 15.0055C66.8643 12.2711 67.3526 9.78078 67.9385 7.92538L67.4502 7.58358C62.3721 10.7574 58.9541 16.6168 58.9541 23.2086C58.9541 25.3504 59.2239 27.3661 59.733 29.2208C58.5967 29.0387 57.4234 28.937 56.2197 28.9219C55.1839 26.9854 53.9535 25.2306 52.5594 23.6767Z" />
    <path fill-rule="evenodd" clip-rule="evenodd" d="M57.8613 66.1972H16.6016C6.7383 66.1972 0 59.9472 0 51.0117C0 44.0781 4.15039 38.414 10.5469 36.3632C11.8652 23.7656 22.6074 14 35.4492 14C44.7266 14 52.8809 18.9804 57.373 27.3789C68.9941 27.5254 77.7832 35.7285 77.7832 46.666C77.7832 57.7011 69.0918 66.1972 57.8613 66.1972ZM7 51.1758C7 55.668 10.2227 59.1348 16.375 59.1348H57.9278C65.2032 59.1348 70.7208 53.666 70.7208 46.8301C70.7208 40.043 65.4961 34.2813 55.584 34.2813C53.4356 34.2813 52.3614 33.6465 51.4825 31.8399C47.918 24.711 42.3516 21 35.418 21C26.0918 21 18.4747 28.3731 17.5469 38.9688C17.3516 41.1172 16.6192 42.0938 14.5684 42.582C9.002 44.0469 7 47.5137 7 51.1758Z" />
</svg>
