<svg width="109" height="109" viewBox="0 0 109 109" fill="none"
    xmlns="http://www.w3.org/2000/svg">
    <path d="M55.3448 106.865L60.0811 98.711C60.8624 97.3927 60.4229 95.879 59.1534 95.1466C57.8351 94.4142 56.3702 94.8048 55.589 96.1231L50.8526 104.375C50.1202 105.596 50.5108 107.11 51.8292 107.842C53.0987 108.574 54.6612 108.135 55.3448 106.865Z" />
    <path d="M43.4306 96.1231L48.1669 87.92C48.8993 86.6017 48.5087 85.1368 47.1903 84.3556C45.872 83.6231 44.4559 84.0138 43.6747 85.3321L38.8895 93.5841C38.2059 94.8048 38.5477 96.3185 39.8661 97.0509C41.1845 97.7833 42.6981 97.3438 43.4306 96.1231Z" />
    <path d="M24.9249 106.914L29.6612 98.7598C30.3936 97.4414 30.003 95.9278 28.7335 95.1953C27.4151 94.4629 25.9503 94.8535 25.169 96.1231L20.4327 104.424C19.7003 105.645 20.0909 107.109 21.4093 107.891C22.6788 108.574 24.2413 108.184 24.9249 106.914Z" />
    <path d="M13.0106 96.172L17.747 87.9688C18.4794 86.6505 18.0888 85.1856 16.7704 84.4044C15.452 83.672 13.9872 84.0626 13.2548 85.381L8.46961 93.6329C7.78601 94.8536 8.12781 96.3673 9.44621 97.0997C10.7645 97.8321 12.2782 97.3927 13.0106 96.172Z" />
    <path fill-rule="evenodd" clip-rule="evenodd" d="M50.5637 34.3634C53.2002 26.8989 60.3636 21.4648 68.6258 21.4648C79.1238 21.4648 87.8152 30.1562 87.8152 40.6543C87.8152 49.0785 82.2186 56.3708 74.5828 58.9232C74.5828 58.9046 74.5828 58.8859 74.5828 58.8672C74.5828 56.6168 74.2108 54.4821 73.5185 52.5092C78.1436 50.5628 81.4187 45.9555 81.4187 40.6543C81.4187 33.6719 75.657 27.9101 68.6258 27.9101C61.9905 27.9101 56.4575 33.1133 55.9238 39.6226C55.3479 39.5719 54.764 39.5412 54.1726 39.5312C53.1496 37.6297 51.9366 35.9004 50.5637 34.3634ZM72.2879 11.9433C72.2879 13.9453 70.6277 15.5566 68.6258 15.5566C66.6726 15.5566 64.9637 13.9453 64.9637 11.9433V4.27734C64.9637 2.32424 66.6726 0.615234 68.6258 0.615234C70.6277 0.615234 72.2879 2.32424 72.2879 4.27734V11.9433ZM91.5262 22.9785C90.0613 24.4433 87.7176 24.3945 86.3016 22.9785C84.9344 21.5625 84.8855 19.2187 86.3016 17.8515L91.8191 12.3828C93.1863 10.9668 95.5298 10.9668 96.9458 12.3828C98.3618 13.75 98.3618 16.1426 96.9458 17.5586L91.5262 22.9785ZM97.2878 44.3164C95.3348 44.3164 93.6258 42.6562 93.6258 40.6543C93.6258 38.7012 95.3348 36.9922 97.2878 36.9922H104.905C106.907 36.9922 108.519 38.7012 108.519 40.6543C108.519 42.6562 106.907 44.3164 104.905 44.3164H97.2878ZM86.3016 63.5547C84.8855 62.1387 84.9344 59.7949 86.3016 58.3789C87.7176 57.0117 90.0613 57.0117 91.4773 58.3789L96.9458 63.8476C98.3618 65.2637 98.3618 67.6074 96.9458 68.9746C95.5298 70.3418 93.1863 70.4394 91.8191 69.0234L86.3016 63.5547ZM50.95 17.8515C52.3172 19.1699 52.3172 21.6113 50.9012 22.9785C49.534 24.3945 47.1902 24.3945 45.7742 22.9785L40.3543 17.5097C38.9871 16.1426 38.9871 13.75 40.4031 12.3828C41.8191 10.9668 44.114 11.0156 45.4812 12.3828L50.95 17.8515Z" />
    <path fill-rule="evenodd" clip-rule="evenodd" d="M57.8613 80.1973H16.6016C6.7383 80.1973 0 73.9961 0 65.0606C0 58.127 4.15039 52.4629 10.5469 50.3633C11.8652 37.7657 22.6074 28 35.4492 28C44.7266 28 52.8809 33.0293 57.373 41.3789C68.9941 41.5742 77.7832 49.7774 77.7832 60.7149C77.7832 71.7012 69.0918 80.1973 57.8613 80.1973ZM7 65.2246C7 69.6679 10.2227 73.1347 16.375 73.1347H57.9278C65.2032 73.1347 70.7208 67.7148 70.7208 60.8789C70.7208 54.0918 65.4961 48.2812 55.584 48.2812C53.4356 48.2812 52.3614 47.6953 51.4825 45.8886C47.918 38.7597 42.3516 35 35.418 35C26.0918 35 18.4747 42.4218 17.5469 52.9687C17.3516 55.166 16.6192 56.0937 14.5684 56.6308C9.002 58.0468 7 61.5136 7 65.2246Z" />
</svg>
