<svg width="109" height="77" viewBox="0 0 109 77" fill="none"
    xmlns="http://www.w3.org/2000/svg">
    <path fill-rule="evenodd" clip-rule="evenodd" d="M50.2197 33.7992C52.8552 26.3088 60.0195 20.873 68.2831 20.873C78.7811 20.873 87.4725 29.5645 87.4725 40.1113C87.4725 48.5355 81.8758 55.7964 74.24 58.3363C74.24 58.316 74.2401 58.2957 74.2401 58.2754C74.2401 56.0288 73.8659 53.8945 73.17 51.9204C77.7981 49.9777 81.076 45.3779 81.076 40.1113C81.076 33.0801 75.3143 27.3184 68.2831 27.3184C61.6476 27.3184 56.1146 32.5216 55.581 39.0729C55.0052 39.0242 54.4212 38.9957 53.8299 38.9883C52.8065 37.075 51.5931 35.3392 50.2197 33.7992ZM71.9452 11.4004C71.9452 13.3535 70.285 15.0137 68.2831 15.0137C66.3299 15.0137 64.621 13.3535 64.621 11.4004V3.73436C64.621 1.73236 66.3299 0.0722656 68.2831 0.0722656C70.285 0.0722656 71.9452 1.73236 71.9452 3.73436V11.4004ZM91.1835 22.4355C89.7186 23.8516 87.3749 23.8027 85.9589 22.4355C84.5917 21.0195 84.5428 18.6758 85.9589 17.3086L91.4764 11.791C92.8436 10.375 95.1871 10.375 96.6031 11.791C98.0191 13.207 98.0191 15.5996 96.6031 17.0156L91.1835 22.4355ZM96.9451 43.7734C94.9921 43.7734 93.2831 42.1133 93.2831 40.1113C93.2831 38.1094 94.9921 36.4492 96.9451 36.4492H104.562C106.564 36.4492 108.176 38.1094 108.176 40.1113C108.176 42.1133 106.564 43.7734 104.562 43.7734H96.9451ZM85.9589 62.9629C84.5428 61.5469 84.5917 59.2031 85.9589 57.8359C87.3749 56.4688 89.7186 56.4688 91.1346 57.8359L96.6031 63.2559C98.0191 64.6719 98.0191 67.0156 96.6031 68.3828C95.1871 69.7988 92.8436 69.8476 91.4764 68.4316L85.9589 62.9629ZM50.6073 17.3086C51.9745 18.627 51.9745 21.0684 50.5585 22.4355C49.1913 23.8027 46.8475 23.8516 45.4315 22.4355L40.0116 16.9668C38.6444 15.5996 38.6444 13.207 40.0604 11.791C41.4764 10.375 43.7713 10.4238 45.1385 11.791L50.6073 17.3086Z" />
    <path fill-rule="evenodd" clip-rule="evenodd" d="M57.8613 76.1972H16.6016C6.7383 76.1972 0 69.9472 0 61.0117C0 54.0781 4.15039 48.414 10.5469 46.3633C11.8652 33.7656 22.6074 24 35.4492 24C44.7266 24 52.8809 28.9804 57.373 37.3789C68.9941 37.5254 77.7832 45.7773 77.7832 56.666C77.7832 67.7011 69.0918 76.1972 57.8613 76.1972ZM7 61.1758C7 65.668 10.2227 69.1348 16.375 69.1348H57.9278C65.2032 69.1348 70.7208 63.666 70.7208 56.8301C70.7208 50.043 65.4961 44.2813 55.584 44.2813C53.4356 44.2813 52.3614 43.6465 51.4825 41.8399C47.918 34.711 42.3516 31 35.418 31C26.0918 31 18.4747 38.3731 17.5469 48.9688C17.3516 51.1172 16.6192 52.0938 14.5684 52.5821C9.002 54.0469 7 57.5137 7 61.1758Z" />
</svg>
