<svg width="84" height="84" viewBox="0 0 84 84"
    xmlns="http://www.w3.org/2000/svg">
    <path d="M41.6016 15.4785C43.6524 15.4785 45.3614 13.7207 45.3614 11.6699V3.7597C45.3614 1.709 43.6524 0 41.6016 0C39.502 0 37.793 1.709 37.793 3.7597V11.6699C37.793 13.7207 39.502 15.4785 41.6016 15.4785ZM60.0586 23.1933C61.5235 24.6582 63.9649 24.707 65.4786 23.1933L71.0938 17.6269C72.5098 16.1621 72.5098 13.6719 71.0938 12.207C69.6289 10.7422 67.1875 10.7422 65.7227 12.207L60.0586 17.8711C58.6426 19.3359 58.6426 21.7285 60.0586 23.1933ZM67.7246 41.6992C67.7246 43.75 69.4825 45.5078 71.5332 45.5078H79.3457C81.4453 45.5078 83.1543 43.75 83.1543 41.6992C83.1543 39.6484 81.4453 37.8906 79.3457 37.8906H71.5332C69.4825 37.8906 67.7246 39.6484 67.7246 41.6992ZM60.0586 60.2539C58.6426 61.7187 58.6426 64.1113 60.0586 65.5761L65.7227 71.2402C67.1875 72.7051 69.6289 72.6562 71.0938 71.1914C72.5098 69.7265 72.5098 67.2851 71.0938 65.8203L65.4297 60.2539C63.9649 58.789 61.5235 58.789 60.0586 60.2539ZM41.6016 67.9199C39.502 67.9199 37.793 69.6777 37.793 71.7285V79.6386C37.793 81.6894 39.502 83.3984 41.6016 83.3984C43.6524 83.3984 45.3614 81.6894 45.3614 79.6386V71.7285C45.3614 69.6777 43.6524 67.9199 41.6016 67.9199ZM23.0957 60.2539C21.6309 58.789 19.1407 58.789 17.6758 60.2539L12.1094 65.7715C10.6446 67.2363 10.6446 69.6777 12.0606 71.1426C13.5254 72.6074 15.9668 72.6562 17.4317 71.1914L23.0469 65.5761C24.5118 64.1113 24.5118 61.7187 23.0957 60.2539ZM15.4297 41.6992C15.4297 39.6484 13.7207 37.8906 11.6211 37.8906H3.80856C1.70898 37.8906 0 39.6484 0 41.6992C0 43.75 1.70898 45.5078 3.80856 45.5078H11.6211C13.7207 45.5078 15.4297 43.75 15.4297 41.6992ZM23.0469 23.1933C24.5118 21.7773 24.5118 19.2871 23.0957 17.8711L17.4805 12.207C16.0645 10.791 13.5743 10.7422 12.1582 12.207C10.6934 13.6719 10.6934 16.1621 12.1094 17.5781L17.6758 23.1933C19.1407 24.6582 21.5821 24.6582 23.0469 23.1933Z"/>
    <path d="M41.6016 61.6211C52.4414 61.6211 61.4746 52.6367 61.4746 41.6992C61.4746 30.7617 52.4414 21.7773 41.6016 21.7773C30.7129 21.7773 21.6797 30.7617 21.6797 41.6992C21.6797 52.6367 30.7129 61.6211 41.6016 61.6211ZM41.6016 54.9804C34.3262 54.9804 28.3203 48.9258 28.3203 41.6992C28.3203 34.4726 34.3262 28.4179 41.6016 28.4179C48.8282 28.4179 54.834 34.4726 54.834 41.6992C54.834 48.9258 48.8282 54.9804 41.6016 54.9804Z"/>
</svg>
