<svg width="89" height="93" viewBox="0 0 89 93" fill="none"
    xmlns="http://www.w3.org/2000/svg">
    <path d="M55.1736 92.207C55.906 92.207 56.4431 91.5234 56.3943 90.791L56.1013 87.2754L59.031 89.3262C59.6169 89.7168 60.4958 89.5215 60.8865 88.9356C61.2771 88.3496 61.0818 87.3731 60.3005 87.0313L57.0779 85.5176L60.3494 83.9551C61.0818 83.6133 61.2283 82.6856 60.9353 82.0996C60.5935 81.4648 59.6169 81.3184 59.031 81.709L56.1013 83.8086L56.4431 80.2441C56.5408 79.4629 55.906 78.8281 55.1736 78.8281C54.3435 78.8281 53.8064 79.4629 53.8552 80.2441L54.1482 83.8086L51.1697 81.709C50.6326 81.3184 49.7537 81.416 49.363 82.0996C49.0212 82.6856 49.1189 83.5645 49.9001 83.9551L53.1228 85.5176L49.9001 87.0313C49.1189 87.3731 48.9724 88.3008 49.3142 88.9356C49.656 89.5703 50.6326 89.7168 51.1697 89.3262L54.1482 87.2754L53.9041 90.791C53.8552 91.5234 54.3435 92.207 55.1736 92.207Z" fill="black"/>
    <path d="M33.9822 92.207C34.7146 92.207 35.2517 91.5234 35.2029 90.791L34.9099 87.2754L37.8396 89.3262C38.4255 89.7168 39.3044 89.5215 39.6951 88.9356C40.0857 88.3496 39.8904 87.3731 39.1091 87.0313L35.8865 85.5176L39.158 83.9551C39.8904 83.6133 40.0369 82.6856 39.7439 82.0996C39.4021 81.4648 38.4255 81.3184 37.8396 81.709L34.9099 83.8086L35.2517 80.2441C35.3494 79.4629 34.7146 78.8281 33.9822 78.8281C33.1521 78.8281 32.615 79.4629 32.6638 80.2441L32.9568 83.8086L29.9783 81.709C29.4412 81.3184 28.5623 81.416 28.1716 82.0996C27.8298 82.6856 27.9275 83.5645 28.7087 83.9551L31.9314 85.5176L28.7087 87.0313C27.9275 87.3731 27.781 88.3008 28.1228 88.9356C28.4646 89.5703 29.4412 89.7168 29.9783 89.3262L32.9568 87.2754L32.7126 90.791C32.6638 91.5234 33.1521 92.207 33.9822 92.207Z" fill="black"/>
    <path d="M12.7908 92.207C13.5232 92.207 14.0603 91.5234 14.0115 90.791L13.7185 87.2754L16.6482 89.3262C17.2341 89.7168 18.113 89.5215 18.5037 88.9356C18.8943 88.3496 18.699 87.3731 17.9177 87.0313L14.6951 85.5176L17.9666 83.9551C18.699 83.6133 18.8455 82.6856 18.5525 82.0996C18.2107 81.4648 17.2341 81.3184 16.6482 81.709L13.7185 83.8086L14.0603 80.2441C14.158 79.4629 13.5232 78.8281 12.7908 78.8281C11.9607 78.8281 11.4236 79.4629 11.4724 80.2441L11.7654 83.8086L8.78692 81.709C8.24982 81.3184 7.37082 81.416 6.98022 82.0996C6.63842 82.6856 6.73612 83.5645 7.51732 83.9551L10.74 85.5176L7.51732 87.0313C6.73612 87.3731 6.58962 88.3008 6.93142 88.9356C7.27322 89.5703 8.24982 89.7168 8.78692 89.3262L11.7654 87.2754L11.5212 90.791C11.4724 91.5234 11.9607 92.207 12.7908 92.207Z" fill="black"/>
    <path d="M63.4744 77.8515C64.2068 77.8515 64.7439 77.1679 64.6951 76.4355L64.4021 72.9199L67.3318 74.9707C67.9177 75.3613 68.7966 75.166 69.1873 74.58C69.5779 73.9941 69.3826 73.0175 68.6013 72.6757L65.3787 71.1621L68.6501 69.5996C69.3826 69.2578 69.5291 68.3301 69.2361 67.7441C68.8943 67.1094 67.9177 66.9629 67.3318 67.3535L64.4021 69.4531L64.7439 65.8887C64.8416 65.1074 64.2068 64.4727 63.4744 64.4727C62.6443 64.4727 62.1072 65.1074 62.156 65.8887L62.449 69.4531L59.4705 67.3535C58.9334 66.9629 58.0544 67.0605 57.6638 67.7441C57.322 68.3301 57.4197 69.209 58.2009 69.5996L61.4236 71.1621L58.2009 72.6757C57.4197 73.0175 57.2732 73.9453 57.615 74.58C57.9568 75.2148 58.9334 75.3613 59.4705 74.9707L62.449 72.9199L62.2048 76.4355C62.156 77.1679 62.6443 77.8515 63.4744 77.8515Z" fill="black"/>
    <path d="M42.283 77.8515C43.0154 77.8515 43.5525 77.1679 43.5037 76.4355L43.2107 72.9199L46.1404 74.9707C46.7263 75.3613 47.6052 75.166 47.9958 74.58C48.3865 73.9941 48.1912 73.0175 47.4099 72.6757L44.1873 71.1621L47.4587 69.5996C48.1912 69.2578 48.3376 68.3301 48.0447 67.7441C47.7029 67.1094 46.7263 66.9629 46.1404 67.3535L43.2107 69.4531L43.5525 65.8887C43.6501 65.1074 43.0154 64.4727 42.283 64.4727C41.4529 64.4727 40.9158 65.1074 40.9646 65.8887L41.2576 69.4531L38.2791 67.3535C37.7419 66.9629 36.863 67.0605 36.4724 67.7441C36.1306 68.3301 36.2283 69.209 37.0095 69.5996L40.2322 71.1621L37.0095 72.6757C36.2283 73.0175 36.0818 73.9453 36.4236 74.58C36.7654 75.2148 37.7419 75.3613 38.2791 74.9707L41.2576 72.9199L41.0134 76.4355C40.9646 77.1679 41.4529 77.8515 42.283 77.8515Z" fill="black"/>
    <path d="M21.0916 77.8515C21.824 77.8515 22.3611 77.1679 22.3123 76.4355L22.0193 72.9199L24.949 74.9707C25.5349 75.3613 26.4138 75.166 26.8044 74.58C27.1951 73.9941 26.9998 73.0175 26.2185 72.6757L22.9958 71.1621L26.2673 69.5996C26.9998 69.2578 27.1462 68.3301 26.8533 67.7441C26.5115 67.1094 25.5349 66.9629 24.949 67.3535L22.0193 69.4531L22.3611 65.8887C22.4587 65.1074 21.824 64.4727 21.0916 64.4727C20.2615 64.4727 19.7244 65.1074 19.7732 65.8887L20.0662 69.4531L17.0876 67.3535C16.5505 66.9629 15.6716 67.0605 15.281 67.7441C14.9392 68.3301 15.0369 69.209 15.8181 69.5996L19.0408 71.1621L15.8181 72.6757C15.0369 73.0175 14.8904 73.9453 15.2322 74.58C15.574 75.2148 16.5505 75.3613 17.0876 74.9707L20.0662 72.9199L19.822 76.4355C19.7732 77.1679 20.2615 77.8515 21.0916 77.8515Z" fill="black"/>
    <path d="M19.2363 58.8086H66.5507C79.2949 58.8086 88.6699 49.1406 88.6699 37.2266C88.6699 24.8242 78.6113 15.791 65.5253 15.791C60.7402 6.41595 51.707 0.410156 40.8183 0.410156C26.2675 0.410156 14.2558 11.6895 12.9863 25.8984C6.10154 27.9004 0.925781 34.0527 0.925781 42.1582C0.925781 51.3867 7.61524 58.8086 19.2363 58.8086ZM19.1386 51.7773C11.6191 51.7773 7.95704 47.7246 7.95704 42.3535C7.95704 38.2031 10.2519 34.248 16.6484 32.5391C18.9921 31.9531 19.8222 30.8301 20.0175 28.3887C20.9453 16.0352 29.9785 7.44135 40.8183 7.44135C48.875 7.44135 55.5156 11.8359 59.6171 20.2344C60.5937 22.2852 61.8144 23.0176 64.3046 23.0176C75.6816 23.0176 81.6386 29.6094 81.6386 37.373C81.6386 45.3809 75.3398 51.7773 66.9902 51.7773H19.1386Z" fill="black"/>
</svg>
